<svg xmlns="http://www.w3.org/2000/svg" viewBox="0 0 1200 600" role="img" aria-labelledby="title desc">
  <title id="title">Timeline of representative VLA and robot foundation model systems</title>
  <desc id="desc">A timeline from RT-1 to SmolVLA showing how robot policies evolved from scalable robot transformers to open and efficient VLA systems.</desc>
  <defs>
    <linearGradient id="timeline" x1="0" y1="0" x2="1" y2="0">
      <stop offset="0" stop-color="#3d72d8"/>
      <stop offset="0.25" stop-color="#27a36a"/>
      <stop offset="0.5" stop-color="#df8b20"/>
      <stop offset="0.75" stop-color="#7b5dcc"/>
      <stop offset="1" stop-color="#d15f49"/>
    </linearGradient>
    <filter id="shadow" x="-20%" y="-20%" width="140%" height="140%">
      <feDropShadow dx="0" dy="8" stdDeviation="12" flood-color="#1d2733" flood-opacity="0.12"/>
    </filter>
    <style>
      .title { font: 700 32px Lato, Arial, sans-serif; fill: #1f2937; }
      .subtitle { font: 400 17px Lato, Arial, sans-serif; fill: #5c6674; }
      .name { font: 700 17px Lato, Arial, sans-serif; fill: #172033; }
      .text { font: 400 14px Lato, Arial, sans-serif; fill: #56606f; }
      .tag { font: 700 11px Lato, Arial, sans-serif; fill: #ffffff; letter-spacing: .06em; }
    </style>
  </defs>

  <rect width="1200" height="600" fill="#fbfcff"/>
  <circle cx="104" cy="105" r="64" fill="#edf4ff"/>
  <circle cx="1088" cy="490" r="70" fill="#fff0ea"/>
  <text x="70" y="70" class="title">A Short VLA Timeline</text>
  <text x="72" y="104" class="subtitle">Representative systems that changed how robots combine vision, language, and action.</text>

  <rect x="100" y="312" width="1000" height="8" rx="4" fill="url(#timeline)"/>

  <g filter="url(#shadow)">
    <circle cx="150" cy="316" r="14" fill="#3d72d8"/>
    <rect x="60" y="370" width="196" height="132" rx="16" fill="#ffffff" stroke="#d8e5ff"/>
    <rect x="86" y="390" width="64" height="24" rx="12" fill="#3d72d8"/>
    <text x="102" y="407" class="tag">2022</text>
    <text x="86" y="440" class="name">RT-1</text>
    <text x="86" y="466" class="text">Scaled robot data</text>
    <text x="86" y="488" class="text">and transformer control.</text>
  </g>

  <g filter="url(#shadow)">
    <circle cx="320" cy="316" r="14" fill="#27a36a"/>
    <rect x="205" y="132" width="230" height="148" rx="16" fill="#ffffff" stroke="#d8f1dc"/>
    <rect x="231" y="152" width="64" height="24" rx="12" fill="#27a36a"/>
    <text x="247" y="169" class="tag">2023</text>
    <text x="231" y="202" class="name">PaLM-E / RT-2</text>
    <text x="231" y="230" class="text">Embodied reasoning</text>
    <text x="231" y="252" class="text">and action tokens.</text>
  </g>

  <g filter="url(#shadow)">
    <circle cx="488" cy="316" r="14" fill="#df8b20"/>
    <rect x="365" y="370" width="246" height="132" rx="16" fill="#ffffff" stroke="#ffe0ad"/>
    <rect x="391" y="390" width="64" height="24" rx="12" fill="#df8b20"/>
    <text x="407" y="407" class="tag">2023</text>
    <text x="391" y="440" class="name">Open X-Embodiment</text>
    <text x="391" y="466" class="text">Cross-robot data</text>
    <text x="391" y="488" class="text">and RT-X transfer.</text>
  </g>

  <g filter="url(#shadow)">
    <circle cx="668" cy="316" r="14" fill="#7b5dcc"/>
    <rect x="553" y="132" width="230" height="148" rx="16" fill="#ffffff" stroke="#efdcff"/>
    <rect x="579" y="152" width="64" height="24" rx="12" fill="#7b5dcc"/>
    <text x="595" y="169" class="tag">2024</text>
    <text x="579" y="202" class="name">Octo / OpenVLA</text>
    <text x="579" y="230" class="text">Open-source policies</text>
    <text x="579" y="252" class="text">for manipulation.</text>
  </g>

  <g filter="url(#shadow)">
    <circle cx="850" cy="316" r="14" fill="#d15f49"/>
    <rect x="742" y="370" width="218" height="132" rx="16" fill="#ffffff" stroke="#ffd9d3"/>
    <rect x="768" y="390" width="64" height="24" rx="12" fill="#d15f49"/>
    <text x="784" y="407" class="tag">2024</text>
    <text x="768" y="440" class="name">pi0</text>
    <text x="768" y="466" class="text">Flow matching for</text>
    <text x="768" y="488" class="text">dexterous actions.</text>
  </g>

  <g filter="url(#shadow)">
    <circle cx="1030" cy="316" r="14" fill="#34495e"/>
    <rect x="900" y="132" width="250" height="158" rx="16" fill="#ffffff" stroke="#dbe7ef"/>
    <rect x="926" y="152" width="64" height="24" rx="12" fill="#34495e"/>
    <text x="942" y="169" class="tag">2025</text>
    <text x="926" y="202" class="name">Gemini Robotics</text>
    <text x="926" y="224" class="name">GR00T N1 / SmolVLA</text>
    <text x="926" y="252" class="text">Generalist and efficient</text>
    <text x="926" y="274" class="text">robot deployment.</text>
  </g>
</svg>
