<svg xmlns="http://www.w3.org/2000/svg" viewBox="0 0 1200 620" role="img" aria-labelledby="title desc">
  <title id="title">Timeline from VLM to VLA to WAM</title>
  <desc id="desc">A timeline of representative papers and systems from CLIP and LLaVA to RT-2, OpenVLA, pi0, DreamZero, and Fast-WAM.</desc>
  <defs>
    <linearGradient id="line" x1="0" y1="0" x2="1" y2="0">
      <stop offset="0" stop-color="#3b73d9"/>
      <stop offset="0.36" stop-color="#238a5b"/>
      <stop offset="0.72" stop-color="#7a63cf"/>
      <stop offset="1" stop-color="#d98421"/>
    </linearGradient>
    <filter id="shadow" x="-20%" y="-20%" width="140%" height="150%">
      <feDropShadow dx="0" dy="8" stdDeviation="12" flood-color="#172033" flood-opacity="0.12"/>
    </filter>
    <style>
      .title { font: 700 34px Lato, Arial, sans-serif; fill: #172033; }
      .subtitle { font: 400 17px Lato, Arial, sans-serif; fill: #5f6b7a; }
      .year { font: 800 12px Lato, Arial, sans-serif; fill: #ffffff; letter-spacing: .08em; }
      .name { font: 700 17px Lato, Arial, sans-serif; fill: #172033; }
      .text { font: 400 14px Lato, Arial, sans-serif; fill: #5b6572; }
      .tag { font: 700 12px Lato, Arial, sans-serif; fill: #495466; }
      .caption { font: 700 15px Lato, Arial, sans-serif; fill: #2a3442; }
    </style>
  </defs>

  <rect width="1200" height="620" fill="#fbfcff"/>
  <circle cx="96" cy="98" r="64" fill="#eef5ff"/>
  <circle cx="1090" cy="506" r="76" fill="#fff0dc"/>
  <circle cx="1000" cy="94" r="46" fill="#ecf9f0"/>

  <text x="70" y="72" class="title">A Compact Path Toward Acting Models</text>
  <text x="72" y="106" class="subtitle">Representative milestones available before March 25, 2026.</text>

  <rect x="98" y="310" width="1004" height="8" rx="4" fill="url(#line)"/>

  <g filter="url(#shadow)">
    <circle cx="146" cy="314" r="14" fill="#3b73d9"/>
    <rect x="54" y="368" width="210" height="128" rx="16" fill="#ffffff" stroke="#d9e7ff"/>
    <rect x="80" y="388" width="64" height="24" rx="12" fill="#3b73d9"/>
    <text x="96" y="405" class="year">2021</text>
    <text x="80" y="438" class="name">CLIP</text>
    <text x="80" y="464" class="text">Language as a</text>
    <text x="80" y="486" class="text">visual query interface.</text>
  </g>

  <g filter="url(#shadow)">
    <circle cx="304" cy="314" r="14" fill="#547fd7"/>
    <rect x="202" y="132" width="210" height="138" rx="16" fill="#ffffff" stroke="#d9e7ff"/>
    <rect x="228" y="152" width="64" height="24" rx="12" fill="#547fd7"/>
    <text x="244" y="169" class="year">2023</text>
    <text x="228" y="202" class="name">LLaVA</text>
    <text x="228" y="228" class="text">Instruction tuning</text>
    <text x="228" y="250" class="text">for image-language dialog.</text>
  </g>

  <g filter="url(#shadow)">
    <circle cx="464" cy="314" r="14" fill="#238a5b"/>
    <rect x="350" y="368" width="230" height="128" rx="16" fill="#ffffff" stroke="#d8f2df"/>
    <rect x="376" y="388" width="64" height="24" rx="12" fill="#238a5b"/>
    <text x="392" y="405" class="year">2023</text>
    <text x="376" y="438" class="name">RT-1 / RT-2</text>
    <text x="376" y="464" class="text">Robot data and web</text>
    <text x="376" y="486" class="text">knowledge meet actions.</text>
  </g>

  <g filter="url(#shadow)">
    <circle cx="624" cy="314" r="14" fill="#2f9c6b"/>
    <rect x="506" y="132" width="236" height="138" rx="16" fill="#ffffff" stroke="#d8f2df"/>
    <rect x="532" y="152" width="64" height="24" rx="12" fill="#2f9c6b"/>
    <text x="548" y="169" class="year">2024</text>
    <text x="532" y="202" class="name">Octo / OpenVLA</text>
    <text x="532" y="228" class="text">Open generalist policies</text>
    <text x="532" y="250" class="text">for manipulation.</text>
  </g>

  <g filter="url(#shadow)">
    <circle cx="784" cy="314" r="14" fill="#7a63cf"/>
    <rect x="680" y="368" width="220" height="128" rx="16" fill="#ffffff" stroke="#e6dcff"/>
    <rect x="706" y="388" width="64" height="24" rx="12" fill="#7a63cf"/>
    <text x="722" y="405" class="year">2024</text>
    <text x="706" y="438" class="name">pi0</text>
    <text x="706" y="464" class="text">Flow matching for</text>
    <text x="706" y="486" class="text">dexterous actions.</text>
  </g>

  <g filter="url(#shadow)">
    <circle cx="944" cy="314" r="14" fill="#d98421"/>
    <rect x="828" y="132" width="236" height="138" rx="16" fill="#ffffff" stroke="#ffe5bb"/>
    <rect x="854" y="152" width="64" height="24" rx="12" fill="#d98421"/>
    <text x="870" y="169" class="year">2026</text>
    <text x="854" y="202" class="name">DreamZero</text>
    <text x="854" y="228" class="text">World action modeling</text>
    <text x="854" y="250" class="text">with video and action.</text>
  </g>

  <g filter="url(#shadow)">
    <circle cx="1092" cy="314" r="14" fill="#c36c1f"/>
    <rect x="958" y="368" width="210" height="128" rx="16" fill="#ffffff" stroke="#ffe5bb"/>
    <rect x="984" y="388" width="64" height="24" rx="12" fill="#c36c1f"/>
    <text x="1000" y="405" class="year">2026</text>
    <text x="984" y="438" class="name">Fast-WAM</text>
    <text x="984" y="464" class="text">Runtime cost as a</text>
    <text x="984" y="486" class="text">deployment constraint.</text>
  </g>

  <g>
    <rect x="250" y="536" width="700" height="42" rx="21" fill="#ffffff" stroke="#d9dee8"/>
    <text x="398" y="563" class="caption">Recognition -> action generation -> future modeling</text>
  </g>
</svg>
