<svg xmlns="http://www.w3.org/2000/svg" viewBox="0 0 1200 560" role="img" aria-labelledby="title desc">
  <title id="title">Timeline from VLM to VLA to WAM</title>
  <desc id="desc">A timeline of representative papers and systems from CLIP and LLaVA to RT-2, OpenVLA, pi0, DreamZero, and Fast-WAM.</desc>
  <defs>
    <linearGradient id="line" x1="0" y1="0" x2="1" y2="0">
      <stop offset="0" stop-color="#3b73d9"/>
      <stop offset="0.36" stop-color="#238a5b"/>
      <stop offset="0.72" stop-color="#7a63cf"/>
      <stop offset="1" stop-color="#d98421"/>
    </linearGradient>
    <filter id="shadow" x="-20%" y="-20%" width="140%" height="150%">
      <feDropShadow dx="0" dy="8" stdDeviation="12" flood-color="#172033" flood-opacity="0.12"/>
    </filter>
    <style>
      .title { font: 700 34px Lato, Arial, sans-serif; fill: #172033; }
      .subtitle { font: 400 17px Lato, Arial, sans-serif; fill: #5f6b7a; }
      .year { font: 800 12px Lato, Arial, sans-serif; fill: #ffffff; letter-spacing: .08em; }
      .name { font: 700 18px Lato, Arial, sans-serif; fill: #172033; }
      .text { font: 400 14px Lato, Arial, sans-serif; fill: #5b6572; }
      .tag { font: 700 12px Lato, Arial, sans-serif; fill: #495466; }
      .caption { font: 700 15px Lato, Arial, sans-serif; fill: #2a3442; }
    </style>
  </defs>

  <rect width="1200" height="560" fill="#fbfcff"/>
  <circle cx="96" cy="98" r="64" fill="#eef5ff"/>
  <circle cx="1090" cy="452" r="76" fill="#fff0dc"/>
  <circle cx="1000" cy="94" r="46" fill="#ecf9f0"/>

  <text x="70" y="72" class="title">A Compact Path Toward Acting Models</text>
  <text x="72" y="106" class="subtitle">Representative milestones available before March 25, 2026.</text>

  <rect x="98" y="266" width="1004" height="8" rx="4" fill="url(#line)"/>

  <g filter="url(#shadow)">
    <circle cx="146" cy="270" r="14" fill="#3b73d9"/>
    <rect x="70" y="322" width="166" height="116" rx="16" fill="#ffffff" stroke="#d9e7ff"/>
    <rect x="92" y="342" width="64" height="24" rx="12" fill="#3b73d9"/>
    <text x="108" y="359" class="year">2021</text>
    <text x="92" y="391" class="name">CLIP</text>
    <text x="92" y="416" class="text">Language becomes a</text>
    <text x="92" y="437" class="text">visual query interface.</text>
  </g>

  <g filter="url(#shadow)">
    <circle cx="304" cy="270" r="14" fill="#547fd7"/>
    <rect x="224" y="118" width="176" height="118" rx="16" fill="#ffffff" stroke="#d9e7ff"/>
    <rect x="246" y="138" width="64" height="24" rx="12" fill="#547fd7"/>
    <text x="262" y="155" class="year">2023</text>
    <text x="246" y="188" class="name">LLaVA</text>
    <text x="246" y="213" class="text">Instruction tuning for</text>
    <text x="246" y="234" class="text">image-language dialog.</text>
  </g>

  <g filter="url(#shadow)">
    <circle cx="464" cy="270" r="14" fill="#238a5b"/>
    <rect x="382" y="322" width="188" height="116" rx="16" fill="#ffffff" stroke="#d8f2df"/>
    <rect x="404" y="342" width="64" height="24" rx="12" fill="#238a5b"/>
    <text x="420" y="359" class="year">2023</text>
    <text x="404" y="391" class="name">RT-1 / RT-2</text>
    <text x="404" y="416" class="text">Robot data and web</text>
    <text x="404" y="437" class="text">knowledge meet actions.</text>
  </g>

  <g filter="url(#shadow)">
    <circle cx="624" cy="270" r="14" fill="#2f9c6b"/>
    <rect x="542" y="118" width="194" height="118" rx="16" fill="#ffffff" stroke="#d8f2df"/>
    <rect x="564" y="138" width="64" height="24" rx="12" fill="#2f9c6b"/>
    <text x="580" y="155" class="year">2024</text>
    <text x="564" y="188" class="name">Octo / OpenVLA</text>
    <text x="564" y="213" class="text">Open generalist policies</text>
    <text x="564" y="234" class="text">for manipulation.</text>
  </g>

  <g filter="url(#shadow)">
    <circle cx="784" cy="270" r="14" fill="#7a63cf"/>
    <rect x="706" y="322" width="170" height="116" rx="16" fill="#ffffff" stroke="#e6dcff"/>
    <rect x="728" y="342" width="64" height="24" rx="12" fill="#7a63cf"/>
    <text x="744" y="359" class="year">2024</text>
    <text x="728" y="391" class="name">pi0</text>
    <text x="728" y="416" class="text">Flow matching for</text>
    <text x="728" y="437" class="text">dexterous actions.</text>
  </g>

  <g filter="url(#shadow)">
    <circle cx="944" cy="270" r="14" fill="#d98421"/>
    <rect x="852" y="118" width="204" height="118" rx="16" fill="#ffffff" stroke="#ffe5bb"/>
    <rect x="874" y="138" width="64" height="24" rx="12" fill="#d98421"/>
    <text x="890" y="155" class="year">2026</text>
    <text x="874" y="188" class="name">DreamZero</text>
    <text x="874" y="213" class="text">World action modeling</text>
    <text x="874" y="234" class="text">with video and action.</text>
  </g>

  <g filter="url(#shadow)">
    <circle cx="1092" cy="270" r="14" fill="#c36c1f"/>
    <rect x="1004" y="322" width="164" height="116" rx="16" fill="#ffffff" stroke="#ffe5bb"/>
    <rect x="1026" y="342" width="64" height="24" rx="12" fill="#c36c1f"/>
    <text x="1042" y="359" class="year">2026</text>
    <text x="1026" y="391" class="name">Fast-WAM</text>
    <text x="1026" y="416" class="text">Prediction as training</text>
    <text x="1026" y="437" class="text">signal vs runtime cost.</text>
  </g>

  <g>
    <rect x="326" y="488" width="548" height="42" rx="21" fill="#ffffff" stroke="#d9dee8"/>
    <text x="377" y="515" class="caption">Recognition -> action generation -> action-conditioned future modeling</text>
  </g>
</svg>
